<svg xmlns="http://www.w3.org/2000/svg" version="1.1" xmlns:xlink="http://www.w3.org/1999/xlink" width="512" height="512" x="0" y="0" viewBox="0 0 322.625 322.625" style="enable-background:new 0 0 512 512" xml:space="preserve" class=""><g><path d="M99.269 55.839v-43.43C99.269 5.584 93.685 0 86.861 0S74.452 5.584 74.452 12.409v43.43c0 6.825 5.584 12.409 12.409 12.409s12.408-5.584 12.408-12.409zM248.173 55.839v-43.43C248.173 5.584 242.589 0 235.764 0s-12.409 5.584-12.409 12.409v43.43c0 6.825 5.584 12.409 12.409 12.409s12.409-5.584 12.409-12.409zM310.216 290.611v-160.32H12.409v160.32c0 17.682 14.332 32.014 32.014 32.014h233.779c17.682 0 32.014-14.332 32.014-32.014z" fill="#0bf00f" opacity="1" data-original="#000000"></path><path d="M210.947 55.839V37.226h-99.269v18.613c0 13.712-11.106 24.817-24.817 24.817S62.043 69.55 62.043 55.839V37.226h-17.62c-17.682 0-32.014 14.332-32.014 32.014v48.642h297.808V69.24c0-17.682-14.332-32.014-32.014-32.014h-17.62v18.613c0 13.712-11.106 24.817-24.817 24.817s-24.819-11.106-24.819-24.817z" fill="#0bf00f" opacity="1" data-original="#000000"></path></g></svg>