<svg xmlns="http://www.w3.org/2000/svg" version="1.1" xmlns:xlink="http://www.w3.org/1999/xlink" width="512" height="512" x="0" y="0" viewBox="0 0 512.064 512.064" style="enable-background:new 0 0 512 512" xml:space="preserve" class=""><g><path d="M224.01 0C100.522 0 .01 81.824.01 182.4c0 50.944 25.6 98.72 70.816 133.088-14.368 22.336-34.272 46.944-58.656 52.992C4.458 370.4-.694 377.696.106 385.6c.768 7.936 7.296 14.048 15.232 14.4.384 0 1.792.064 4.064.064 16.608 0 80.448-2.656 152.864-40.224 16.512 3.296 33.888 4.96 51.744 4.96 123.488 0 224-81.824 224-182.4S347.498 0 224.01 0zm0 332.8c-17.6 0-34.592-1.824-50.56-5.44-3.744-.864-7.712-.32-11.136 1.536-30.976 16.704-60.64 26.304-85.024 31.808C88.586 347.52 98.026 332.8 106.058 319.2c4.352-7.36 2.112-16.832-5.024-21.504C57.162 268.96 32.01 226.944 32.01 182.4c0-82.944 86.112-150.4 192-150.4s192 67.456 192 150.4c0 82.912-86.112 150.4-192 150.4z" fill="#0bf00f" opacity="1" data-original="#000000" class=""></path><path d="M499.946 480.192c-18.304-4.64-36-19.392-52.672-43.936 41.344-32 64.736-76.064 64.736-122.976 0-22.24-5.312-44.16-15.776-65.088-3.968-7.936-13.664-11.04-21.472-7.136-7.904 3.968-11.104 13.568-7.168 21.472 8.224 16.448 12.416 33.504 12.416 50.752 0 40.576-23.04 78.976-63.2 105.344-7.168 4.672-9.344 14.176-4.96 21.536 7.904 13.344 16.064 24.832 24.576 34.496a277.051 277.051 0 0 1-74.912-27.296c-3.36-1.824-7.328-2.336-11.04-1.536-64.32 14.144-133.6-2.592-176.992-40.864-6.688-5.888-16.768-5.216-22.592 1.408-5.856 6.624-5.216 16.736 1.408 22.592 49.632 43.712 126.656 63.424 199.264 49.312 58.24 29.952 110.56 33.792 133.632 33.792 7.328 0 11.68-.384 12.384-.448 7.744-.736 13.856-6.944 14.432-14.688.576-7.776-4.512-14.816-12.064-16.736z" fill="#0bf00f" opacity="1" data-original="#000000" class=""></path></g></svg>