<svg xmlns="http://www.w3.org/2000/svg" version="1.1" xmlns:xlink="http://www.w3.org/1999/xlink" width="512" height="512" x="0" y="0" viewBox="0 0 512 512" style="enable-background:new 0 0 512 512" xml:space="preserve" class=""><g><path fill-rule="evenodd" d="m451.17 393.9-96.71-182.25-96.7 182.25zM155.45 182.76c11.27 0 22.29 4.79 31.71 13.65l25.36-48.14h-52.44l-19.7 37.4c4.85-1.9 9.88-2.89 14.97-2.91zm-2.22 78.06c-9.42-8.86-20.44-13.65-31.71-13.65h-.1c-5.09.01-10.12 1-14.96 2.9l21.08-40.04c8.18-9.97 17.8-15.25 27.84-15.28h.07c9.06 0 18.12 4.52 25.85 12.77zm19.23-10.75 21.09-40.04c8.17-9.97 17.79-15.25 27.83-15.28h.07c9.06 0 18.12 4.52 25.85 12.77l-28.07 53.29c-9.42-8.86-20.44-13.65-31.71-13.65h-.1c-5.08.02-10.12 1.01-14.96 2.91zm-12.83 24.37-21.09 40.04c4.85-1.9 9.88-2.89 14.96-2.91h.1c11.27 0 22.29 4.79 31.72 13.65l28.07-53.29c-7.73-8.26-16.8-12.77-25.86-12.77h-.07c-10.05.03-19.67 5.32-27.83 15.28zm-72.04 37.13c11.27 0 22.29 4.79 31.72 13.65l28.07-53.29c-7.73-8.26-16.8-12.77-25.86-12.77h-.07c-10.04.03-19.66 5.31-27.83 15.28l-21.09 40.04c4.85-1.9 9.88-2.89 14.96-2.91zm-2.2 78.06c-9.43-8.86-20.45-13.65-31.72-13.65h-.09c-5.09.01-10.12 1-14.97 2.9l21.09-40.04c8.18-9.97 17.79-15.25 27.83-15.28h.07c9.06 0 18.13 4.51 25.86 12.76zm65.99 0c-9.43-8.86-20.45-13.65-31.72-13.65h-.09c-5.09.01-10.12 1-14.97 2.9l21.09-40.04c8.18-9.97 17.79-15.25 27.83-15.28h.07c9.07 0 18.13 4.51 25.86 12.76zm93.79-53.59-28.16 53.24c-9.35-8.64-20.22-13.3-31.34-13.3h-.1c-5.09.01-10.12 1-14.97 2.9l21.09-40.04c8.18-9.97 17.79-15.25 27.83-15.28h.07c8.96.02 17.91 4.41 25.58 12.48zm34.02-64.31-28.16 53.23c-9.36-8.69-20.28-13.39-31.44-13.39h-.09c-5.09.02-10.12 1-14.97 2.91l21.09-40.04c8.17-9.97 17.79-15.25 27.83-15.28h.07c8.99.01 17.98 4.44 25.67 12.57zm-26.03-75.32c-9.42-8.86-20.44-13.65-31.71-13.65h-.1c-5.09.01-10.12 1-14.97 2.91l19.7-37.4h52.44zm60.05 11.01-28.15 53.22c-9.39-8.75-20.34-13.47-31.54-13.47h-.1c-5.08.01-10.11 1-14.96 2.9l21.09-40.04c8.17-9.97 17.79-15.25 27.83-15.28h.07c9.02.01 18.05 4.48 25.76 12.67zm5.87-11.09 25.42-48.05h-52.42l-19.7 37.4c4.85-1.9 9.88-2.89 14.97-2.91h.1c11.23-.01 22.22 4.75 31.63 13.56zm40.69-56.87a6.008 6.008 0 0 0-5.31-3.19h-28.68v-20.22h57.84v68.5zm-.01 56.58c-1.04-1.96-3.08-3.18-5.3-3.18s-4.26 1.22-5.3 3.18L244.17 393.9h-16.03l126.32-238.8 126.33 238.8h-16.03z" clip-rule="evenodd" fill="#0bf00f" opacity="1" data-original="#000000"></path></g></svg>