<svg xmlns="http://www.w3.org/2000/svg" version="1.1" xmlns:xlink="http://www.w3.org/1999/xlink" width="512" height="512" x="0" y="0" viewBox="0 0 64 64" style="enable-background:new 0 0 512 512" xml:space="preserve" class=""><g><path d="M53.909 40h-8.818l6.563-15h8.817Zm-4.438-15-6.562 15h-9.818l1.309-3H40a1 1 0 0 0 .9-.553l4-8A1 1 0 0 0 45 28v-3ZM25 37h7.221l-1.312 3h-9.818L24 33.351V36a1 1 0 0 0 1 1Zm5.034 5-5.688 13h-9.817l5.687-13Zm2.182 0h9.818l-5.688 13h-9.817ZM43 27.764l-2 4V15h2ZM23 9h23v4H23Zm16 6v20H26V15ZM16.654 25H24v3.363L18.909 40h-8.818ZM9.216 42h8.818l-5.688 13H3.529Zm38.13 13h-8.817l5.687-13h8.818Zm3.933-4L61 28.78V51Z" data-name="Layer 32" fill="#0bf00f" opacity="1" data-original="#000000"></path></g></svg>