<svg xmlns="http://www.w3.org/2000/svg" version="1.1" xmlns:xlink="http://www.w3.org/1999/xlink" width="512" height="512" x="0" y="0" viewBox="0 0 48 48" style="enable-background:new 0 0 512 512" xml:space="preserve" class=""><g><path d="M21 36.185A14.988 14.988 0 1 1 31.606 31.8 14.95 14.95 0 0 1 21 36.185zm0-25.987a10.99 10.99 0 1 0 7.778 3.216A10.967 10.967 0 0 0 21 10.198z" fill="#0bf00f" opacity="1" data-original="#000000"></path><path d="M39.808 42a1.995 1.995 0 0 1-1.43-.601l-8.808-9a2 2 0 0 1 2.86-2.798l8.808 9A2 2 0 0 1 39.808 42z" fill="#0bf00f" opacity="1" data-original="#000000"></path></g></svg>